<svg width="16" height="18" viewBox="0 0 16 18" fill="none" xmlns="http://www.w3.org/2000/svg">
<path fill-rule="evenodd" clip-rule="evenodd" d="M0 0.386667V17.1312C0 17.3344 0.0799889 17.5295 0.222669 17.6742C0.522541 17.9783 1.01218 17.9817 1.3163 17.6819L7.92724 11.1633L14.5382 17.6819C14.6829 17.8245 14.8779 17.9045 15.0811 17.9045C15.5082 17.9045 15.8545 17.5583 15.8545 17.1312V0.386667C15.8545 0.173117 15.6814 0 15.4678 0H0.386667C0.173117 0 0 0.173117 0 0.386667ZM1.15999 16.2068V1.15993H14.6945V16.2068L8.47019 10.0696C8.16909 9.77268 7.68536 9.77268 7.38426 10.0696L1.15999 16.2068Z" fill="#262626"/>
</svg>
