<svg width="18" height="18" viewBox="0 0 18 18" fill="none" xmlns="http://www.w3.org/2000/svg">
<path fill-rule="evenodd" clip-rule="evenodd" d="M17.0133 8.50667C17.0133 3.80856 13.2048 0 8.50667 0C3.80856 0 0 3.80856 0 8.50667C0 13.2048 3.80856 17.0133 8.50667 17.0133C9.53207 17.0133 10.9407 16.6393 12.7325 15.8911L15.63 17.0214L15.716 17.0493C16.0905 17.1475 16.4874 16.9514 16.6315 16.582C16.6892 16.4342 16.7 16.2723 16.6625 16.1182L15.8546 12.7956L15.9869 12.479C16.6712 10.8122 17.0133 9.48809 17.0133 8.50667ZM14.9032 12.0641L14.6365 12.6955L15.36 15.6707L12.7178 14.64L11.9962 14.9393C10.4745 15.5534 9.29898 15.8531 8.50667 15.8531C4.44922 15.8531 1.16001 12.5639 1.16001 8.50647C1.16001 4.44902 4.44922 1.1598 8.50667 1.1598C12.5641 1.1598 15.8533 4.44902 15.8533 8.50647C15.8533 9.315 15.5417 10.5135 14.9032 12.0641Z" fill="#262626"/>
</svg>
