<svg width="8" height="8" viewBox="0 0 8 8" fill="none" xmlns="http://www.w3.org/2000/svg">
<path fill-rule="evenodd" clip-rule="evenodd" d="M3.82731 0L4.78022 0.621339L5.91779 0.61382L6.38351 1.65171L7.34455 2.2604L7.17522 3.38531L7.65462 4.41695L6.90399 5.27174L6.74954 6.39879L5.65594 6.71207L4.91668 7.57671L3.82731 7.249L2.73794 7.57671L1.99868 6.71207L0.905078 6.39879L0.750629 5.27174L0 4.41695L0.479401 3.38531L0.310066 2.2604L1.27111 1.65171L1.73683 0.61382L2.8744 0.621339L3.82731 0ZM4.83947 2.72102L3.31701 4.33745L2.81516 3.80462C2.69803 3.68026 2.50226 3.67439 2.37789 3.79153C2.25353 3.90866 2.24767 4.10443 2.3648 4.22879L3.09183 5.00071C3.21395 5.13037 3.42007 5.13037 3.54219 5.00071L5.28983 3.14519C5.40696 3.02083 5.4011 2.82506 5.27673 2.70792C5.15237 2.59079 4.9566 2.59665 4.83947 2.72102Z" fill="#3897F0"/>
</svg>
