<svg width="19" height="16" viewBox="0 0 19 16" fill="none" xmlns="http://www.w3.org/2000/svg">
<path fill-rule="evenodd" clip-rule="evenodd" d="M9.18143 2.05329L8.67484 1.46122C6.6363 -0.577319 3.38535 -0.438403 1.34681 1.60013C-0.691724 3.63867 -0.299403 7.57983 1.73913 9.61837C2.56649 10.4457 3.80551 11.5913 5.45619 13.055L6.84489 14.2767L8.40463 15.6306C8.83409 16.0012 9.46862 16.0069 9.90464 15.644L11.1682 14.5846C13.3809 12.7146 15.0229 11.2417 16.0942 10.1658L16.3722 9.88224L16.6219 9.61837C18.5204 7.57104 19.0083 3.59126 17.0172 1.60013L16.873 1.46122C14.8256 -0.4373 11.7384 -0.529911 9.74727 1.46122L9.18143 2.05329ZM2.16708 2.42023C3.77904 0.808271 6.27282 0.732699 7.82465 2.25166L9.13391 3.78182L10.5859 2.26253C12.0752 0.773611 14.4489 0.795135 16.0842 2.31164L16.2126 2.43552C17.6196 3.84283 17.3802 7.0945 15.7714 8.82947L15.5297 9.08477L15.2616 9.35812C14.3735 10.2494 13.0574 11.4435 11.322 12.9306L10.4194 13.6985L9.16258 14.7523L7.60531 13.4005L6.49076 12.4215C4.92027 11.0335 3.70874 9.92325 2.86047 9.09524L2.5594 8.79798C0.88008 7.11865 0.670041 3.91727 2.16708 2.42023Z" fill="#262626"/>
</svg>
